<?xml version="1.0" encoding="UTF-8" standalone="no"?>
<svg
   xmlns:dc="http://purl.org/dc/elements/1.1/"
   xmlns:cc="http://creativecommons.org/ns#"
   xmlns:rdf="http://www.w3.org/1999/02/22-rdf-syntax-ns#"
   xmlns:svg="http://www.w3.org/2000/svg"
   xmlns="http://www.w3.org/2000/svg"
   xmlns:sodipodi="http://sodipodi.sourceforge.net/DTD/sodipodi-0.dtd"
   xmlns:inkscape="http://www.inkscape.org/namespaces/inkscape"
   width="20.737366mm"
   height="20.926283mm"
   viewBox="0 0 20.737365 20.926283"
   version="1.1"
   id="svg8"
   inkscape:version="1.0.1 (3bc2e813f5, 2020-09-07)"
   sodipodi:docname="Logo_Watermelon_Black_v4.svg">
  <defs
     id="defs2" />
  <sodipodi:namedview
     id="base"
     pagecolor="#ffffff"
     bordercolor="#666666"
     borderopacity="1.0"
     inkscape:pageopacity="0.0"
     inkscape:pageshadow="2"
     inkscape:zoom="1.4"
     inkscape:cx="-19.797996"
     inkscape:cy="-38.556668"
     inkscape:document-units="mm"
     inkscape:current-layer="layer1"
     inkscape:document-rotation="0"
     showgrid="false"
     showguides="true"
     inkscape:guide-bbox="true"
     inkscape:window-width="1600"
     inkscape:window-height="837"
     inkscape:window-x="1912"
     inkscape:window-y="99"
     inkscape:window-maximized="1"
     fit-margin-top="0.1"
     fit-margin-bottom="0.1"
     fit-margin-right="0.1"
     fit-margin-left="0.1">
    <sodipodi:guide
       position="-68.902255,81.51039"
       orientation="1,0"
       id="guide855" />
  </sodipodi:namedview>
  <metadata
     id="metadata5">
    <rdf:RDF>
      <cc:Work
         rdf:about="">
        <dc:format>image/svg+xml</dc:format>
        <dc:type
           rdf:resource="http://purl.org/dc/dcmitype/StillImage" />
        <dc:title></dc:title>
      </cc:Work>
    </rdf:RDF>
  </metadata>
  <g
     inkscape:label="Layer 1"
     inkscape:groupmode="layer"
     id="layer1"
     transform="translate(-108.99268,-196.6243)">
    <g
       id="g877"
       transform="rotate(-60,135.74335,184.65655)"
       style="stroke-width:1.5;stroke-miterlimit:4;stroke-dasharray:none">
      <path
         style="fill:none;stroke:#000000;stroke-width:1.5;stroke-linecap:butt;stroke-linejoin:round;stroke-miterlimit:4;stroke-dasharray:none;stroke-opacity:1"
         d="M 108.94453,177.93052 H 95.59178 c 0,0 0.7703,6.43631 6.68531,6.42908 5.91502,-0.008 6.66744,-6.42908 6.66744,-6.42908 z"
         id="path865"
         sodipodi:nodetypes="cczc" />
      <path
         style="fill:#000000;fill-opacity:1;stroke:none;stroke-width:1.5;stroke-linecap:butt;stroke-linejoin:miter;stroke-miterlimit:4;stroke-dasharray:none;stroke-opacity:1"
         d="m 99.540862,181.58768 c 0,0 0.625958,-0.65488 0.400714,-1.4955 -0.199366,-0.74405 -0.948101,-0.54738 -0.948101,-0.54738 0,0 -0.754061,0.17679 -0.547392,0.94809 0.222349,0.82982 1.094779,1.09479 1.094779,1.09479 z"
         id="path867"
         sodipodi:nodetypes="cscsc" />
      <path
         style="fill:#000000;fill-opacity:1;stroke:none;stroke-width:1.5;stroke-linecap:butt;stroke-linejoin:miter;stroke-miterlimit:4;stroke-dasharray:none;stroke-opacity:1"
         d="m 102.27101,182.14116 c 0,0 0.77413,-0.47056 0.77412,-1.34083 1e-5,-0.7703 -0.77412,-0.77412 -0.77412,-0.77412 0,0 -0.77412,-0.0244 -0.77412,0.77411 0,0.85909 0.77412,1.34084 0.77412,1.34084 z"
         id="path869"
         sodipodi:nodetypes="cscsc" />
    </g>
    <g
       id="g887"
       transform="rotate(-60,129.77234,180.97773)"
       style="stroke-width:1.5;stroke-miterlimit:4;stroke-dasharray:none">
      <path
         style="fill:none;stroke:#000000;stroke-width:1.5;stroke-linecap:butt;stroke-linejoin:round;stroke-miterlimit:4;stroke-dasharray:none;stroke-opacity:1"
         d="M 108.94453,177.93052 H 95.59178 c 0,0 0.7703,6.43631 6.68531,6.42908 5.91502,-0.008 6.66744,-6.42908 6.66744,-6.42908 z"
         id="path879"
         sodipodi:nodetypes="cczc" />
      <path
         style="fill:#000000;fill-opacity:1;stroke:none;stroke-width:1.5;stroke-linecap:butt;stroke-linejoin:miter;stroke-miterlimit:4;stroke-dasharray:none;stroke-opacity:1"
         d="m 105.00171,181.59103 c 0,0 0.86954,-0.25417 1.09478,-1.09479 0.19937,-0.74405 -0.54739,-0.9481 -0.54739,-0.9481 0,0 -0.74143,-0.22393 -0.9481,0.54738 -0.22235,0.82981 0.40071,1.49551 0.40071,1.49551 z"
         id="path885"
         sodipodi:nodetypes="cscsc" />
    </g>
    <path
       style="fill:none;stroke:#000000;stroke-width:1.5;stroke-linecap:round;stroke-linejoin:round;stroke-miterlimit:4;stroke-dasharray:none;stroke-opacity:1"
       d="m 123.37347,197.4743 v 19.16464 h 5.50658"
       id="path864" />
  </g>
</svg>
